<?xml version="1.0" standalone="no"?>
<!DOCTYPE svg PUBLIC "-//W3C//DTD SVG 20010904//EN"
 "http://www.w3.org/TR/2001/REC-SVG-20010904/DTD/svg10.dtd">
<svg version="1.0" xmlns="http://www.w3.org/2000/svg"
 width="487.000000pt" height="401.000000pt" viewBox="0 0 487.000000 401.000000"
 preserveAspectRatio="xMidYMid meet">
<metadata>
Created by potrace 1.14, written by Peter Selinger 2001-2017
</metadata>
<g transform="translate(0.000000,401.000000) scale(0.100000,-0.100000)"
fill="#000000" stroke="none">
<path d="M1684 3930 c-23 -9 -36 -33 -28 -53 9 -24 62 -47 169 -72 59 -14 123
-34 144 -44 44 -23 108 -90 126 -135 46 -110 57 -324 49 -973 l-7 -562 -261 6
c-941 22 -1502 -176 -1712 -602 -57 -116 -83 -222 -91 -366 -12 -236 50 -451
181 -625 62 -83 171 -184 244 -227 181 -106 445 -170 807 -197 177 -13 1854
-14 1888 -1 26 10 39 33 31 54 -9 24 -62 47 -169 72 -59 14 -123 34 -144 44
-44 23 -108 90 -126 135 -46 110 -57 324 -49 973 l7 562 261 -6 c941 -22 1502
176 1712 602 57 116 83 222 91 366 12 236 -50 451 -181 625 -62 83 -171 184
-244 227 -181 106 -445 170 -807 197 -169 12 -1861 12 -1891 0z m1846 -133
c135 -23 208 -45 309 -93 79 -37 106 -57 170 -122 113 -116 173 -229 205 -384
31 -152 14 -367 -44 -539 -117 -349 -275 -495 -630 -583 -164 -40 -284 -49
-556 -41 l-241 7 -6 151 c-16 354 0 1062 28 1247 34 227 83 294 265 358 61 22
76 23 240 18 96 -3 213 -12 260 -19z m-1392 -1832 c11 -10 13 -721 3 -988 -16
-422 -37 -557 -101 -645 -36 -50 -110 -95 -204 -124 -63 -19 -84 -20 -235 -15
-257 10 -404 39 -560 113 -79 37 -106 57 -170 122 -80 82 -128 154 -166 249
-91 226 -67 539 63 826 82 180 211 303 394 376 92 36 259 78 363 90 68 8 604
5 613 -4z"/>
</g>
</svg>
